<svg width="150" height="40" viewBox="0 0 150 40" fill="none" xmlns="http://www.w3.org/2000/svg">
<g clip-path="url(#clip0)">
<rect width="150" height="40" fill="#243959"/>
<path d="M46.5 33.392C51.568 33.392 54.508 30.564 54.508 23.676V12.252H50.532V24.04C50.532 28.352 48.964 29.808 46.5 29.808C44.092 29.808 42.58 28.352 42.58 24.04V12.252H38.436V23.676C38.436 30.564 41.46 33.392 46.5 33.392ZM59.1573 33H63.2733V22.22C64.4213 21.072 65.2333 20.456 66.5213 20.456C68.0613 20.456 68.7333 21.296 68.7333 23.732V33H72.8493V23.228C72.8493 19.28 71.3933 16.928 68.0053 16.928C65.8773 16.928 64.2813 18.048 62.9093 19.392H62.8253L62.5173 17.32H59.1573V33ZM77.0948 33H81.2108V17.32H77.0948V33ZM79.1668 14.8C80.5668 14.8 81.5468 13.904 81.5468 12.532C81.5468 11.188 80.5668 10.292 79.1668 10.292C77.7388 10.292 76.7588 11.188 76.7588 12.532C76.7588 13.904 77.7388 14.8 79.1668 14.8ZM85.9347 33H90.0787V25.636H92.8507C97.3027 25.636 100.859 23.508 100.859 18.776C100.859 13.876 97.3307 12.252 92.7387 12.252H85.9347V33ZM90.0787 22.36V15.556H92.4307C95.2867 15.556 96.7987 16.368 96.7987 18.776C96.7987 21.156 95.4267 22.36 92.5707 22.36H90.0787ZM110.116 33.392C114.036 33.392 117.648 30.368 117.648 25.16C117.648 19.952 114.036 16.928 110.116 16.928C106.196 16.928 102.584 19.952 102.584 25.16C102.584 30.368 106.196 33.392 110.116 33.392ZM110.116 30.032C107.988 30.032 106.784 28.128 106.784 25.16C106.784 22.22 107.988 20.288 110.116 20.288C112.244 20.288 113.448 22.22 113.448 25.16C113.448 28.128 112.244 30.032 110.116 30.032ZM121.091 33H125.207V23.648C126.075 21.38 127.559 20.568 128.791 20.568C129.435 20.568 129.883 20.652 130.443 20.82L131.143 17.264C130.667 17.068 130.163 16.928 129.295 16.928C127.671 16.928 125.991 18.048 124.843 20.092H124.759L124.451 17.32H121.091V33ZM139.026 33.392C140.398 33.392 141.49 33.084 142.33 32.804L141.658 29.808C141.238 29.976 140.622 30.144 140.118 30.144C138.718 30.144 137.99 29.304 137.99 27.512V20.568H141.854V17.32H137.99V13.092H134.574L134.098 17.32L131.662 17.516V20.568H133.874V27.512C133.874 31.012 135.302 33.392 139.026 33.392Z" fill="white"/>
<path d="M16.591 11.12C16.4043 11.0399 16.2032 10.9987 16 10.9987C15.7968 10.9987 15.5958 11.0399 15.409 11.12L4.90901 15.62C4.63843 15.7353 4.4077 15.9275 4.24552 16.1729C4.08335 16.4183 3.99689 16.7059 3.99689 17C3.99689 17.2941 4.08335 17.5817 4.24552 17.8271C4.4077 18.0725 4.63843 18.2647 4.90901 18.38L8.87501 20.0765C9.02222 19.91 9.20462 19.7783 9.40901 19.691L15.409 17.12C15.5906 17.0391 15.7864 16.995 15.9851 16.9905C16.1839 16.9859 16.3815 17.0209 16.5666 17.0933C16.7517 17.1658 16.9206 17.2744 17.0633 17.4127C17.2061 17.551 17.32 17.7163 17.3983 17.899C17.4766 18.0817 17.5179 18.2782 17.5196 18.4769C17.5213 18.6757 17.4836 18.8728 17.4084 19.0569C17.3333 19.2409 17.2224 19.4082 17.082 19.549C16.9417 19.6898 16.7748 19.8013 16.591 19.877L12.5005 21.632L15.4105 22.8785C15.5971 22.9583 15.7978 22.9995 16.0008 22.9995C16.2037 22.9995 16.4045 22.9583 16.591 22.8785L27.091 18.3785C27.3607 18.2628 27.5905 18.0705 27.752 17.8255C27.9135 17.5805 27.9996 17.2935 27.9996 17C27.9996 16.7065 27.9135 16.4195 27.752 16.1745C27.5905 15.9295 27.3607 15.7372 27.091 15.6215L16.591 11.1215V11.12ZM5.96501 22.0955L8.50001 23.18V29.333C7.98064 29.2149 7.45471 29.1277 6.92501 29.072C6.58323 29.0361 6.26414 28.8839 6.02113 28.6409C5.77812 28.3979 5.62593 28.0788 5.59001 27.737C5.39274 25.8484 5.51957 23.9399 5.96501 22.094V22.0955ZM14.95 32.8595C13.936 31.8646 12.7718 31.0354 11.5 30.4025V24.467L14.227 25.637C14.7873 25.8772 15.3905 26.001 16 26.001C16.6096 26.001 17.2128 25.8772 17.773 25.637L26.035 22.0955C26.4831 23.941 26.6099 25.8499 26.41 27.7385C26.3741 28.0803 26.2219 28.3994 25.9789 28.6424C25.7359 28.8854 25.4168 29.0376 25.075 29.0735C22.0488 29.3915 19.2198 30.7262 17.05 32.8595C16.7696 33.1343 16.3926 33.2883 16 33.2883C15.6074 33.2883 15.2304 33.1343 14.95 32.8595V32.8595ZM10 35C10.3978 35 10.7794 34.842 11.0607 34.5607C11.342 34.2793 11.5 33.8978 11.5 33.5V30.4025C10.546 29.9285 9.5389 29.57 8.50001 29.3345V33.5C8.50001 33.8978 8.65805 34.2793 8.93935 34.5607C9.22065 34.842 9.60219 35 10 35Z" fill="#FEC260"/>
</g>
<defs>
<clipPath id="clip0">
<rect width="150" height="40" fill="white"/>
</clipPath>
</defs>
</svg>
